<svg width="32" height="29" viewBox="0 0 32 29" fill="none" xmlns="http://www.w3.org/2000/svg">
<path d="M30.2826 0.0295784C30.0375 -0.0287115 29.7796 0.00274998 29.5557 0.11826L27.964 0.913158L26.3587 0.110492C26.2148 0.0385949 26.0563 0.00116421 25.8955 0.00116421C25.7347 0.00116421 25.5762 0.0385949 25.4324 0.110492L23.8069 0.913805L22.2029 0.110492C22.0587 0.0380693 21.8995 0.000353421 21.7381 0.000353421C21.5768 0.000353421 21.4176 0.0380693 21.2734 0.110492L19.6784 0.911216L18.0957 0.112434C17.9519 0.039513 17.793 0.00118907 17.6317 0.00051479C17.4705 -0.000159494 17.3113 0.0368345 17.1668 0.10855L15.5356 0.914452L13.9303 0.109845C13.7862 0.0379818 13.6275 0.000574793 13.4665 0.000574793C13.3055 0.000574793 13.1467 0.0379818 13.0027 0.109845L11.3928 0.913158L9.7849 0.109845C9.57761 0.00593721 9.34145 -0.0254055 9.11424 0.0208356C8.88702 0.0670767 8.6819 0.188227 8.53171 0.364885C8.36983 0.557823 8.28255 0.802439 8.28573 1.05427V16.5716L8.28897 16.5748H20.7141C21.2635 16.5748 21.7903 16.7931 22.1788 17.1815C22.5673 17.57 22.7855 18.0969 22.7855 18.6462V25.375C22.7855 27.3772 24.9262 29 26.9283 29H27.7051C28.5978 29 29.4539 28.6453 30.0852 28.0141C30.7164 27.3828 31.0711 26.5267 31.0711 25.634V1.03615C31.0713 0.804338 30.9937 0.579168 30.8507 0.396676C30.7078 0.214185 30.5078 0.0849228 30.2826 0.0295784ZM25.8926 13.4645H17.6394C17.0801 13.4645 16.5972 13.0347 16.5726 12.4754C16.5663 12.3357 16.5884 12.1961 16.6375 12.0651C16.6867 11.9341 16.7619 11.8144 16.8585 11.7132C16.9552 11.6121 17.0714 11.5316 17.2 11.4766C17.3286 11.4215 17.4671 11.3932 17.607 11.3931H25.8602C26.4195 11.3931 26.9024 11.8229 26.927 12.3822C26.9333 12.522 26.9112 12.6616 26.8621 12.7926C26.8129 12.9236 26.7377 13.0433 26.6411 13.1444C26.5444 13.2456 26.4282 13.3261 26.2996 13.3811C26.171 13.4361 26.0325 13.4645 25.8926 13.4645ZM25.8926 8.28603H13.4966C12.9373 8.28603 12.4544 7.85621 12.4298 7.29694C12.4235 7.15717 12.4456 7.01757 12.4947 6.88657C12.5439 6.75557 12.6191 6.63589 12.7157 6.53474C12.8124 6.43359 12.9286 6.35308 13.0572 6.29806C13.1858 6.24305 13.3243 6.21467 13.4642 6.21463H25.8602C26.4195 6.21463 26.9024 6.64445 26.927 7.20372C26.9333 7.3435 26.9112 7.48309 26.8621 7.61409C26.8129 7.74509 26.7377 7.86478 26.6411 7.96592C26.5444 8.06707 26.4282 8.14758 26.2996 8.2026C26.171 8.25762 26.0325 8.286 25.8926 8.28603Z" fill="black"/>
<path d="M20.7139 25.3751V19.6788C20.7139 19.4041 20.6048 19.1407 20.4106 18.9464C20.2164 18.7522 19.9529 18.6431 19.6783 18.6431H2.07139C1.52199 18.6448 0.995629 18.864 0.607444 19.2528C0.21926 19.6416 0.000853107 20.1683 0 20.7177C0 23.9899 0.374146 25.3505 0.936011 26.3862C1.8895 28.145 3.61588 29.0001 6.21418 29.0001H22.1173C22.1684 29.0001 22.2184 28.985 22.2609 28.9568C22.3034 28.9285 22.3367 28.8882 22.3564 28.8411C22.3761 28.794 22.3814 28.7421 22.3717 28.6919C22.362 28.6418 22.3377 28.5956 22.3018 28.5593C21.6894 27.945 20.7139 27.1229 20.7139 25.3751Z" fill="black"/>
</svg>
