<svg width="41" height="39" viewBox="0 0 41 39" fill="none" xmlns="http://www.w3.org/2000/svg">
<path d="M40.632 4.02067C40.632 4.02067 41.28 2.10067 39.888 0.756675C38.616 -0.491325 36.96 0.180675 36.96 0.180675C35.496 0.900675 23.136 8.50868 18.552 13.5487C16.488 15.8527 13.608 22.6447 15.936 25.1167C18.144 27.4687 25.44 24.7087 27.432 22.7167C32.376 17.7727 39.936 5.50867 40.632 4.02067ZM0 37.8127C5.688 34.0687 3.504 29.6287 7.752 26.6767C9.984 25.1167 13.08 25.1887 15.144 27.3727C16.656 28.9807 17.064 33.5407 14.76 35.6767C10.992 39.1567 5.16 39.3967 0 37.8127Z" fill="black"/>
</svg>
