<svg width="29" height="29" viewBox="0 0 29 29" fill="none" xmlns="http://www.w3.org/2000/svg">
<path d="M17.7222 9.66667C17.2657 9.66667 16.8834 9.512 16.5751 9.20266C16.2668 8.89333 16.1122 8.51096 16.1111 8.05555V1.61111C16.1111 1.15463 16.2658 0.772259 16.5751 0.464C16.8844 0.155741 17.2668 0.00107407 17.7222 0H27.3889C27.8454 0 28.2283 0.154667 28.5376 0.464C28.8469 0.773333 29.0011 1.1557 29 1.61111V8.05555C29 8.51204 28.8453 8.89494 28.536 9.20428C28.2267 9.51361 27.8443 9.66774 27.3889 9.66667H17.7222ZM1.61111 16.1111C1.15463 16.1111 0.772259 15.9564 0.464 15.6471C0.155741 15.3378 0.00107407 14.9554 0 14.5V1.61111C0 1.15463 0.154667 0.772259 0.464 0.464C0.773333 0.155741 1.1557 0.00107407 1.61111 0H11.2778C11.7343 0 12.1172 0.154667 12.4265 0.464C12.7358 0.773333 12.89 1.1557 12.8889 1.61111V14.5C12.8889 14.9565 12.7342 15.3394 12.4249 15.6487C12.1156 15.9581 11.7332 16.1122 11.2778 16.1111H1.61111ZM17.7222 29C17.2657 29 16.8834 28.8453 16.5751 28.536C16.2668 28.2267 16.1122 27.8443 16.1111 27.3889V14.5C16.1111 14.0435 16.2658 13.6611 16.5751 13.3529C16.8844 13.0446 17.2668 12.89 17.7222 12.8889H27.3889C27.8454 12.8889 28.2283 13.0436 28.5376 13.3529C28.8469 13.6622 29.0011 14.0446 29 14.5V27.3889C29 27.8454 28.8453 28.2283 28.536 28.5376C28.2267 28.8469 27.8443 29.0011 27.3889 29H17.7222ZM1.61111 29C1.15463 29 0.772259 28.8453 0.464 28.536C0.155741 28.2267 0.00107407 27.8443 0 27.3889V20.9444C0 20.488 0.154667 20.1056 0.464 19.7973C0.773333 19.4891 1.1557 19.3344 1.61111 19.3333H11.2778C11.7343 19.3333 12.1172 19.488 12.4265 19.7973C12.7358 20.1067 12.89 20.489 12.8889 20.9444V27.3889C12.8889 27.8454 12.7342 28.2283 12.4249 28.5376C12.1156 28.8469 11.7332 29.0011 11.2778 29H1.61111Z" fill="black"/>
</svg>
