<svg width="48" height="48" viewBox="0 0 48 48" fill="none" xmlns="http://www.w3.org/2000/svg">
<path fill-rule="evenodd" clip-rule="evenodd" d="M12.5332 0.173148C12.6241 0.159814 12.7168 0.166268 12.8049 0.192069C12.8931 0.21787 12.9746 0.26241 13.044 0.32264C13.1133 0.382871 13.1688 0.457371 13.2067 0.541043C13.2446 0.624715 13.264 0.715584 13.2635 0.807434V37.6303C13.2642 37.9639 13.1613 38.2895 12.9691 38.5622C12.7769 38.8349 12.5048 39.0411 12.1903 39.1526C11.5823 39.3697 10.9538 39.5903 10.3046 39.8143L9.4852 40.0989C8.42578 40.476 7.25663 40.8909 6.13892 41.1034C4.99035 41.3229 4.0852 40.7812 3.55035 40.308C2.52178 39.3994 1.9972 38.2406 1.68178 37.188C1.45656 36.3767 1.28138 35.5523 1.1572 34.7194L1.07149 34.2189C-0.357163 26.1916 -0.357163 17.9752 1.07149 9.94801L1.24292 8.99486C1.44863 7.82915 1.71263 6.37201 2.4052 5.02801C2.6122 4.6155 2.86032 4.22495 3.14578 3.86229C3.49047 3.41194 3.93228 3.04513 4.43835 2.78915C5.80978 2.13429 7.33206 1.42801 8.73778 1.04058C9.98547 0.679778 11.2527 0.390168 12.5332 0.173148ZM18.8349 38.3674C18.467 38.2724 18.1411 38.0579 17.9084 37.7575C17.6756 37.4572 17.5493 37.088 17.5492 36.708V2.53886C17.5491 2.27689 17.6091 2.01839 17.7245 1.78321C17.8399 1.54803 18.0077 1.34243 18.2149 1.18219C18.4222 1.02196 18.6634 0.911348 18.92 0.858865C19.1767 0.806381 19.442 0.813418 19.6955 0.879434L27.4098 2.87486C27.7771 2.9705 28.1022 3.18532 28.3343 3.48563C28.5663 3.78594 28.6922 4.15477 28.6921 4.53429V21.8691C26.8781 23.2404 25.4068 25.0135 24.3937 27.0492C23.3806 29.0849 22.8533 31.3278 22.8532 33.6017C22.8532 35.8234 23.3469 37.8806 24.0909 39.7252L18.8349 38.3674ZM32.9812 2.98458V19.62C34.4632 19.1353 36.0128 18.8888 37.5721 18.8897C40.7846 18.8897 43.7606 19.9183 46.1778 21.6669C46.3902 16.5977 46.0279 11.5208 45.0978 6.53315C44.9607 5.70135 44.7799 4.87735 44.5561 4.06458C44.2482 2.94445 43.6688 1.91755 42.8692 1.07486C42.3618 0.567434 41.4703 -0.0977092 40.2669 0.0120051C38.4326 0.183434 36.5161 0.684005 35.2372 1.03715C34.8441 1.14458 34.4441 1.27486 34.0372 1.42801C33.7232 1.54849 33.4537 1.76226 33.2649 2.04056C33.0761 2.31885 32.9771 2.64831 32.9812 2.98458ZM37.5721 23.1754C36.2022 23.1741 34.8454 23.4428 33.5795 23.9662C32.3135 24.4896 31.1631 25.2574 30.1941 26.2258C29.2251 27.1941 28.4566 28.344 27.9323 29.6096C27.4081 30.8753 27.1385 32.2318 27.1389 33.6017C27.1389 37.6303 29.4395 41.1994 31.6132 43.6337C32.7241 44.8783 33.8658 45.8966 34.8018 46.6166C35.2772 46.98 35.7035 47.2726 36.0806 47.4943C36.2681 47.6063 36.4589 47.7046 36.6532 47.7892C36.7801 47.844 37.1401 47.9949 37.5686 47.9949C37.9972 47.9949 38.3572 47.844 38.4841 47.7892C38.6784 47.7046 38.8692 47.6063 39.0566 47.4943C39.4269 47.2749 39.8658 46.9766 40.3321 46.6166C41.2681 45.8966 42.4132 44.8783 43.5206 43.6337C45.7012 41.2029 47.9983 37.6337 47.9983 33.6017C47.9993 32.2318 47.7301 30.8752 47.2063 29.6094C46.6824 28.3436 45.9142 27.1935 44.9456 26.2248C43.9769 25.2561 42.8268 24.4879 41.561 23.9641C40.2952 23.4403 38.9385 23.1711 37.5686 23.172M37.5686 31.1126C38.7515 31.1126 39.7115 32.0726 39.7115 33.2554V33.7732C39.7115 34.3415 39.4857 34.8865 39.0839 35.2884C38.682 35.6902 38.137 35.916 37.5686 35.916C37.0003 35.916 36.4553 35.6902 36.0534 35.2884C35.6515 34.8865 35.4258 34.3415 35.4258 33.7732V33.2589C35.4258 32.076 36.3858 31.1126 37.5686 31.1126Z" fill="black"/>
</svg>
