<svg width="38" height="38" viewBox="0 0 38 38" fill="none" xmlns="http://www.w3.org/2000/svg">
<path d="M31.596 1.17115C30.8459 0.421262 29.8287 0 28.768 0C27.7073 0 26.6901 0.421262 25.94 1.17115L22.65 4.46315L33.256 15.0691L36.546 11.7811C36.9176 11.4097 37.2124 10.9687 37.4135 10.4833C37.6146 9.99785 37.7181 9.47757 37.7181 8.95215C37.7181 8.42672 37.6146 7.90645 37.4135 7.42104C37.2124 6.93563 36.9176 6.4946 36.546 6.12315L31.596 1.17115ZM30.428 17.8971L19.822 7.29115L2.152 24.9611L0 37.7211L12.76 35.5671L30.428 17.8971Z" fill="black"/>
</svg>
