<svg width="30" height="36" viewBox="0 0 30 36" fill="none" xmlns="http://www.w3.org/2000/svg">
<path d="M24.5435 12.7059H21.1765V2.11765C21.1765 0.952941 20.2235 0 19.0588 0H10.5882C9.42353 0 8.47059 0.952941 8.47059 2.11765V12.7059H5.10353C3.21882 12.7059 2.26588 14.9929 3.6 16.3271L13.32 26.0471C14.1459 26.8729 15.48 26.8729 16.3059 26.0471L26.0259 16.3271C27.36 14.9929 26.4282 12.7059 24.5435 12.7059ZM0 33.8824C0 35.0471 0.952941 36 2.11765 36H27.5294C28.6941 36 29.6471 35.0471 29.6471 33.8824C29.6471 32.7176 28.6941 31.7647 27.5294 31.7647H2.11765C0.952941 31.7647 0 32.7176 0 33.8824Z" fill="black"/>
</svg>
