<svg width="32" height="36" viewBox="0 0 32 36" fill="none" xmlns="http://www.w3.org/2000/svg">
<path d="M20.0022 18V33.76C20.0822 34.36 19.8822 35 19.4222 35.42C19.2372 35.6054 19.0174 35.7525 18.7755 35.8529C18.5335 35.9532 18.2742 36.0049 18.0122 36.0049C17.7503 36.0049 17.4909 35.9532 17.249 35.8529C17.007 35.7525 16.7872 35.6054 16.6022 35.42L12.5822 31.4C12.3642 31.1867 12.1984 30.9259 12.0978 30.6379C11.9972 30.35 11.9645 30.0427 12.0022 29.74V18H11.9422L0.422215 3.24C0.0974317 2.82306 -0.0491171 2.29452 0.0145911 1.76986C0.0782994 1.2452 0.347085 0.767093 0.762215 0.44C1.14222 0.16 1.56222 0 2.00222 0H30.0022C30.4422 0 30.8622 0.16 31.2422 0.44C31.6573 0.767093 31.9261 1.2452 31.9898 1.76986C32.0535 2.29452 31.907 2.82306 31.5822 3.24L20.0622 18H20.0022Z" fill="black"/>
</svg>
