<svg width="33" height="35" viewBox="0 0 33 35" fill="none" xmlns="http://www.w3.org/2000/svg">
<path fill-rule="evenodd" clip-rule="evenodd" d="M5.21058 6.10352e-05C3.82865 6.10352e-05 2.50332 0.549032 1.52615 1.52621C0.548971 2.50338 0 3.82871 0 5.21065V29.5267C0 30.9086 0.548971 32.234 1.52615 33.2111C2.50332 34.1883 3.82865 34.7373 5.21058 34.7373H15.6318C17.0137 34.7373 18.339 34.1883 19.3162 33.2111C20.2934 32.234 20.8423 30.9086 20.8423 29.5267V5.21065C20.8423 3.82871 20.2934 2.50338 19.3162 1.52621C18.339 0.549032 17.0137 6.10352e-05 15.6318 6.10352e-05H5.21058ZM23.0881 9.19327C23.4138 8.86766 23.8555 8.68474 24.3161 8.68474C24.7766 8.68474 25.2183 8.86766 25.544 9.19327L32.4915 16.1407C32.8171 16.4664 33 16.9081 33 17.3687C33 17.8292 32.8171 18.2709 32.4915 18.5966L25.544 25.5441C25.2164 25.8605 24.7777 26.0355 24.3223 26.0316C23.8669 26.0276 23.4313 25.845 23.1093 25.5229C22.7872 25.2009 22.6046 24.7653 22.6006 24.3099C22.5967 23.8545 22.7717 23.4157 23.0881 23.0882L27.0707 19.1055H12.158C11.6974 19.1055 11.2556 18.9225 10.9299 18.5968C10.6042 18.2711 10.4212 17.8293 10.4212 17.3687C10.4212 16.908 10.6042 16.4663 10.9299 16.1405C11.2556 15.8148 11.6974 15.6318 12.158 15.6318H27.0707L23.0881 11.6492C22.7625 11.3235 22.5796 10.8818 22.5796 10.4212C22.5796 9.96068 22.7625 9.51898 23.0881 9.19327Z" fill="black"/>
</svg>
