<svg width="36" height="45" viewBox="0 0 36 45" fill="none" xmlns="http://www.w3.org/2000/svg">
<path d="M14.23 41.622C15.442 42.622 16.706 43.536 18 44.428C19.2968 43.5478 20.5546 42.6116 21.77 41.622C23.796 39.9584 25.7027 38.1547 27.476 36.224C31.564 31.754 36 25.274 36 18C36 15.6362 35.5344 13.2956 34.6298 11.1117C33.7252 8.92784 32.3994 6.94353 30.7279 5.27208C29.0565 3.60062 27.0722 2.27475 24.8883 1.37017C22.7044 0.465584 20.3638 0 18 0C15.6362 0 13.2956 0.465584 11.1117 1.37017C8.92784 2.27475 6.94353 3.60062 5.27208 5.27208C3.60062 6.94353 2.27475 8.92784 1.37017 11.1117C0.465584 13.2956 -3.52233e-08 15.6362 0 18C0 25.274 4.436 31.752 8.524 36.224C10.2972 38.1554 12.2039 39.9578 14.23 41.622ZM18 24.5C16.2761 24.5 14.6228 23.8152 13.4038 22.5962C12.1848 21.3772 11.5 19.7239 11.5 18C11.5 16.2761 12.1848 14.6228 13.4038 13.4038C14.6228 12.1848 16.2761 11.5 18 11.5C19.7239 11.5 21.3772 12.1848 22.5962 13.4038C23.8152 14.6228 24.5 16.2761 24.5 18C24.5 19.7239 23.8152 21.3772 22.5962 22.5962C21.3772 23.8152 19.7239 24.5 18 24.5Z" fill="black"/>
</svg>
