<svg width="37" height="34" viewBox="0 0 37 34" fill="none" xmlns="http://www.w3.org/2000/svg">
<path fill-rule="evenodd" clip-rule="evenodd" d="M36.468 27.2C36.535 27.1977 36.6016 27.2111 36.6625 27.2392C36.7234 27.2673 36.7768 27.3093 36.8184 27.3619C36.8601 27.4144 36.8888 27.476 36.9022 27.5417C36.9157 27.6074 36.9136 27.6753 36.896 27.74C36.508 29.124 35.894 30.304 34.908 31.296C33.466 32.75 31.636 33.396 29.376 33.702C27.18 34 24.376 34 20.832 34H16.758C13.216 34 10.41 34 8.214 33.702C5.954 33.396 4.124 32.75 2.682 31.296C1.24 29.846 0.6 28 0.296 25.724C0 23.508 0 20.68 0 17.11V16.89C0 13.32 0 10.49 0.296 8.278C0.6 6 1.24 4.16 2.68 2.702C4.122 1.25 5.952 0.602 8.212 0.298C10.41 3.27826e-07 13.216 0 16.758 0H20.832C24.374 0 27.18 3.27826e-07 29.376 0.298C31.636 0.604 33.466 1.25 34.908 2.702C35.894 3.696 36.508 4.876 36.896 6.262C36.9132 6.32657 36.9151 6.39427 36.9014 6.45968C36.8878 6.5251 36.859 6.58641 36.8174 6.6387C36.7758 6.69099 36.7225 6.73282 36.6618 6.76083C36.6012 6.78884 36.5348 6.80225 36.468 6.8H31.602C26.134 6.8 21.316 11.154 21.316 17C21.316 22.846 26.136 27.2 31.604 27.2H36.468ZM7.228 7.772C7.03758 7.77279 6.84919 7.81107 6.67356 7.88467C6.49794 7.95827 6.33854 8.06573 6.20445 8.20093C6.07036 8.33614 5.96422 8.49643 5.89208 8.67265C5.81993 8.84888 5.78321 9.03758 5.784 9.228C5.784 10.034 6.43 10.686 7.228 10.686H14.94C15.74 10.686 16.386 10.034 16.386 9.228C16.3871 8.84325 16.2354 8.47381 15.9643 8.20081C15.6931 7.92782 15.3247 7.77359 14.94 7.772H7.228Z" fill="black"/>
</svg>
