<svg width="29" height="27" viewBox="0 0 29 27" fill="none" xmlns="http://www.w3.org/2000/svg">
<path d="M23.2 27V5.68421H26.1C26.8975 5.68421 27.5804 5.96274 28.1488 6.51979C28.7172 7.07684 29.001 7.74568 29 8.52631V24.1579C29 24.9395 28.7163 25.6088 28.1488 26.1658C27.5814 26.7229 26.8985 27.0009 26.1 27H23.2ZM11.6 5.68421H17.4V2.8421H11.6V5.68421ZM8.7 27V2.8421C8.7 2.06053 8.9842 1.39168 9.5526 0.835579C10.121 0.279474 10.8035 0.000947368 11.6 0H17.4C18.1975 0 18.8804 0.278526 19.4488 0.835579C20.0172 1.39263 20.301 2.06147 20.3 2.8421V27H8.7ZM2.9 27C2.1025 27 1.42003 26.7219 0.8526 26.1658C0.285167 25.6097 0.000966667 24.9404 0 24.1579V8.52631C0 7.74474 0.2842 7.07589 0.8526 6.51979C1.421 5.96368 2.10347 5.68516 2.9 5.68421H5.8V27H2.9Z" fill="black"/>
</svg>
