<svg width="33" height="22" viewBox="0 0 33 22" fill="none" xmlns="http://www.w3.org/2000/svg">
<path d="M9.625 11.0001C12.65 11.0001 15.125 8.52506 15.125 5.50006C15.125 2.47506 12.65 6.10352e-05 9.625 6.10352e-05C6.6 6.10352e-05 4.125 2.47506 4.125 5.50006C4.125 8.52506 6.6 11.0001 9.625 11.0001ZM15.125 22.0001V14.7126C13.6125 14.1626 11.6875 13.7501 9.625 13.7501C4.2625 13.7501 0 16.2251 0 19.2501V22.0001H15.125ZM30.25 6.10352e-05H20.625C19.1125 6.10352e-05 17.875 1.23756 17.875 2.75006V19.2501C17.875 20.7626 19.1125 22.0001 20.625 22.0001H30.25C31.7625 22.0001 33 20.7626 33 19.2501V2.75006C33 1.23756 31.7625 6.10352e-05 30.25 6.10352e-05ZM24.75 19.2501H22V2.75006H24.75V19.2501Z" fill="black"/>
</svg>
