<svg width="36" height="36" viewBox="0 0 36 36" fill="none" xmlns="http://www.w3.org/2000/svg">
<path d="M26.3822 23.2167H24.715L24.1241 22.6469C25.443 21.1147 26.4068 19.31 26.9468 17.3618C27.4867 15.4136 27.5894 13.3702 27.2474 11.3777C26.2556 5.511 21.3596 0.826067 15.4507 0.108555C13.3733 -0.154254 11.2633 0.0616455 9.28221 0.739731C7.30111 1.41782 5.50139 2.54012 4.02075 4.02075C2.54012 5.50139 1.41782 7.30111 0.739731 9.28221C0.0616455 11.2633 -0.154254 13.3733 0.108555 15.4507C0.826067 21.3596 5.511 26.2556 11.3777 27.2474C13.3702 27.5894 15.4136 27.4867 17.3618 26.9468C19.31 26.4068 21.1147 25.443 22.6469 24.1241L23.2167 24.715V26.3822L32.1856 35.3511C33.0508 36.2163 34.4647 36.2163 35.33 35.3511C36.1952 34.4858 36.1952 33.0719 35.33 32.2067L26.3822 23.2167ZM13.7202 23.2167C8.46546 23.2167 4.2237 18.9749 4.2237 13.7202C4.2237 8.46546 8.46546 4.2237 13.7202 4.2237C18.9749 4.2237 23.2167 8.46546 23.2167 13.7202C23.2167 18.9749 18.9749 23.2167 13.7202 23.2167Z" fill="black"/>
</svg>
